<?xml version="1.0" encoding="utf-8"?>
<!-- Generator: Adobe Illustrator 16.0.0, SVG Export Plug-In . SVG Version: 6.00 Build 0)  -->
<!DOCTYPE svg PUBLIC "-//W3C//DTD SVG 1.1//EN" "http://www.w3.org/Graphics/SVG/1.1/DTD/svg11.dtd">
<svg version="1.1" id="Layer_1" xmlns="http://www.w3.org/2000/svg" xmlns:xlink="http://www.w3.org/1999/xlink" x="0px" y="0px"
	 width="75px" height="75px" viewBox="0 0 75 75" enable-background="new 0 0 75 75" xml:space="preserve">
<circle fill="none" stroke="#0073FF" stroke-width="5" stroke-miterlimit="10" cx="37.501" cy="37.5" r="32.491"/>
<circle fill="none" stroke="#000000" stroke-width="5" stroke-miterlimit="10" cx="37.501" cy="37.5" r="28.017"/>
<path d="M44.143,53.884c-5.646,0-8.116-3.138-9.084-5.008c-0.99-1.909-0.751-4.868,0.566-7.036c1.272-2.092,3.343-3.244,5.829-3.244
	c0.138,0,0.277,0.004,0.42,0.012c5.684,0.283,5.759,3.383,5.811,5.434c0.041,1.645-0.115,2.447,0.65,3.458
	c1.154,1.524,3.544,1.638,4.758,1.546c1.744-0.132-1.721,3.836-5.98,4.57C46.081,53.794,45.082,53.884,44.143,53.884L44.143,53.884z
	"/>
<path d="M28.032,22.288c-0.464-0.726-1.273-1.21-2.198-1.21c-1.442,0-2.611,1.169-2.611,2.611c0,0.349,0.071,0.681,0.195,0.986
	l-0.074,0.047l9.483,17.792c0.225-0.621,0.494-1.227,0.837-1.791c1.534-2.522,3.976-3.964,6.908-4.132L28.032,22.288z"/>
</svg>
