<?xml version="1.0" encoding="utf-8"?>
<!-- Generator: Adobe Illustrator 16.0.0, SVG Export Plug-In . SVG Version: 6.00 Build 0)  -->
<!DOCTYPE svg PUBLIC "-//W3C//DTD SVG 1.1//EN" "http://www.w3.org/Graphics/SVG/1.1/DTD/svg11.dtd">
<svg version="1.1" id="Layer_1" xmlns="http://www.w3.org/2000/svg" xmlns:xlink="http://www.w3.org/1999/xlink" x="0px" y="0px"
	 width="75px" height="75px" viewBox="0 0 75 75" enable-background="new 0 0 75 75" xml:space="preserve">
<circle fill="none" stroke="#000000" stroke-width="5" stroke-miterlimit="10" cx="37.501" cy="37.5" r="28.017"/>
<path d="M55.934,42.794l0.021-0.01l-4.086-14.729c-0.337-1.97-2.042-3.473-4.107-3.473c-1.331,0-2.501,0.633-3.267,1.602
	l-0.033-0.007c-1.649,2.42-2.859,2.145-2.859,2.145h-2.915h-2.639h-2.915c0,0-1.21,0.275-2.859-2.145l-0.033,0.007
	c-0.766-0.968-1.937-1.602-3.267-1.602c-2.065,0-3.771,1.503-4.107,3.473l-4.086,14.729l0.021,0.01
	c-0.11,0.409-0.187,0.83-0.187,1.273c0,2.724,2.208,4.931,4.932,4.931c1.673,0,3.147-0.838,4.038-2.113l0.05,0.023l3.629-5.938
	h4.785h2.639h4.785l3.629,5.938l0.05-0.023c0.891,1.275,2.365,2.113,4.038,2.113c2.724,0,4.932-2.207,4.932-4.931
	C56.121,43.624,56.044,43.203,55.934,42.794z"/>
</svg>
