<?xml version="1.0" encoding="utf-8"?>
<!-- Generator: Adobe Illustrator 16.0.0, SVG Export Plug-In . SVG Version: 6.00 Build 0)  -->
<!DOCTYPE svg PUBLIC "-//W3C//DTD SVG 1.1//EN" "http://www.w3.org/Graphics/SVG/1.1/DTD/svg11.dtd">
<svg version="1.1" id="Layer_1" xmlns="http://www.w3.org/2000/svg" xmlns:xlink="http://www.w3.org/1999/xlink" x="0px" y="0px"
	 width="75px" height="75px" viewBox="0 0 75 75" enable-background="new 0 0 75 75" xml:space="preserve">
<circle fill="none" stroke="#0073FF" stroke-width="5" stroke-miterlimit="10" cx="37.501" cy="37.5" r="32.491"/>
<g>
	<circle fill="none" stroke="#000000" stroke-width="5" stroke-miterlimit="10" cx="37.501" cy="37.5" r="28.017"/>
</g>
<g>
	<path d="M52.161,44.854c-3.259-3.259-6.517-6.518-9.772-9.774c-0.515-0.513-0.832-1.064-1.021-1.764
		c-0.845-3.153-1.688-6.307-2.535-9.459c-0.424-1.585-1.197-2.359-2.781-2.784c-2.195-0.587-4.391-1.176-6.586-1.763
		c-0.371,0.371-0.744,0.745-1.117,1.117c1.855,1.856,3.709,3.711,5.566,5.566c-0.566,2.112-1.133,4.224-1.699,6.336
		c-2.111,0.565-4.225,1.132-6.336,1.698c-1.855-1.855-3.711-3.71-5.566-5.565c-0.373,0.372-0.746,0.746-1.117,1.117
		c0.588,2.196,1.176,4.391,1.764,6.585c0.424,1.585,1.199,2.358,2.783,2.782c3.152,0.846,6.307,1.689,9.459,2.535
		c0.699,0.188,1.252,0.506,1.764,1.02c3.258,3.259,6.516,6.516,9.773,9.773c2.051,2.05,5.371,2.05,7.422,0
		C54.21,50.225,54.21,46.902,52.161,44.854z M50.307,50.418c-1.025,1.025-2.687,1.025-3.711,0c-1.023-1.025-1.023-2.686,0-3.71
		c1.024-1.024,2.686-1.024,3.711,0C51.331,47.732,51.331,49.393,50.307,50.418z"/>
</g>
</svg>
