<?xml version="1.0" encoding="utf-8"?>
<!-- Generator: Adobe Illustrator 16.0.0, SVG Export Plug-In . SVG Version: 6.00 Build 0)  -->
<!DOCTYPE svg PUBLIC "-//W3C//DTD SVG 1.1//EN" "http://www.w3.org/Graphics/SVG/1.1/DTD/svg11.dtd">
<svg version="1.1" id="Layer_1" xmlns="http://www.w3.org/2000/svg" xmlns:xlink="http://www.w3.org/1999/xlink" x="0px" y="0px"
	 width="75px" height="75px" viewBox="0 0 75 75" enable-background="new 0 0 75 75" xml:space="preserve">
<g id="WIFI_Icon">
	<path fill="#231F20" d="M29.988,45.76c4.527-4.938,11.861-4.939,16.385,0l-8.191,8.945L29.988,45.76z"/>
	<path fill="none" stroke="#231F20" stroke-width="5.0285" stroke-miterlimit="10" d="M16.593,31.138
		c11.924-13.014,31.254-13.017,43.179,0"/>
	<path fill="none" stroke="#231F20" stroke-width="5.0285" stroke-miterlimit="10" d="M26.737,42.213
		c6.321-6.901,16.568-6.901,22.888,0"/>
	<path fill="none" stroke="#231F20" stroke-width="5.0285" stroke-miterlimit="10" d="M21.664,36.672
		c9.124-9.959,23.915-9.959,33.036,0"/>
	<path fill="none" stroke="#231F20" stroke-width="5" stroke-miterlimit="10" d="M70.56,62.826c0,4.271-3.463,7.733-7.733,7.733
		H12.175c-4.272,0-7.734-3.463-7.734-7.733V12.173c0-4.27,3.462-7.732,7.734-7.732h50.651c4.271,0,7.733,3.463,7.733,7.732V62.826z"
		/>
</g>
</svg>
